<svg xmlns="http://www.w3.org/2000/svg" xmlns:xlink="http://www.w3.org/1999/xlink" version="1.1" width="99.21pt" height="42.5195pt" viewBox="0 0 99.21 42.5195">
<path transform="matrix(1,0,0,-1,36.9233,25.9004)" d="M0 0V15.741H4.527V0C4.527-2.238 7.089-4.211 10.206-4.211H12.511V-7.654H10.206C4.654-7.654 0-4.246 0 0" fill="#231f20"/>
<path transform="matrix(1,0,0,-1,0,42.5195)" d="M50.847 24.573H55.374V8.965H50.847ZM50.847 32.36H55.374V28.35H50.847Z" fill="#231f20"/>
<path transform="matrix(1,0,0,-1,57.0537,17.946702)" d="M0 0H7.898C13.793 0 18.233-3.275 18.233-8.254V-15.608H13.664V-8.254C13.664-5.346 11.271-3.443 7.898-3.443H4.528V-15.608H0Z" fill="#231f20"/>
<path transform="matrix(1,0,0,-1,81.5811,23.4629)" d="M0 0H10.677C9.908 1.706 7.856 2.908 5.509 2.908 3.075 2.908 .981 1.706 0 0M14.946-10.092H5.509C-.341-10.092-5.08-6.549-5.08-1.902-5.08 2.676-.341 6.385 5.509 6.385 11.104 6.385 15.672 2.742 15.672-1.668V-3.441H-.213C.513-5.379 2.82-6.648 5.509-6.648H14.946Z" fill="#231f20"/>
<path transform="matrix(1,0,0,-1,26.1309,10.004902)" d="M0 0V-22.31H-10.061C-15.854-22.31-20.546-17.827-20.546-11.954-20.546-6.16-15.854-1.468-10.061-1.468-7.905-1.468-6.088-2.061-4.523-3.159V2.18C-5.791 2.538-7.126 2.734-8.509 2.734-16.584 2.734-23.131-3.812-23.131-11.888-23.131-19.964-16.584-26.511-8.509-26.511-.434-26.511 6.113-19.964 6.113-11.888 6.113-6.987 3.7-2.653 0 0" fill="#231f20"/>
<path transform="matrix(1,0,0,-1,10.1084,21.9594)" d="M0 0C0-3.296 2.664-6.003 5.962-6.003H11.499V.296C11.499 3.512 9.09 6.09 5.962 6.09 2.664 6.09 0 3.339 0 0" fill="#939598"/>
</svg>
